<?xml version="1.0" encoding="UTF-8" standalone="no"?>
<!-- Created with Inkscape (http://www.inkscape.org/) -->

<svg
   version="1.1"
   id="svg1"
   width="716"
   height="864"
   viewBox="0 0 716 864"
   sodipodi:docname="3.svg"
   inkscape:version="1.4 (e7c3feb100, 2024-10-09)"
   xmlns:inkscape="http://www.inkscape.org/namespaces/inkscape"
   xmlns:sodipodi="http://sodipodi.sourceforge.net/DTD/sodipodi-0.dtd"
   xmlns="http://www.w3.org/2000/svg"
   xmlns:svg="http://www.w3.org/2000/svg">
  <defs
     id="defs1" />
  <sodipodi:namedview
     id="namedview1"
     pagecolor="#ffffff"
     bordercolor="#000000"
     borderopacity="0.25"
     inkscape:showpageshadow="2"
     inkscape:pageopacity="0.0"
     inkscape:pagecheckerboard="0"
     inkscape:deskcolor="#d1d1d1"
     showgrid="false"
     inkscape:zoom="0.71"
     inkscape:cx="207.04225"
     inkscape:cy="395.77465"
     inkscape:window-width="1920"
     inkscape:window-height="1011"
     inkscape:window-x="0"
     inkscape:window-y="0"
     inkscape:window-maximized="1"
     inkscape:current-layer="layer1" />
  <g
     inkscape:groupmode="layer"
     id="layer1"
     inkscape:label="Layer 1">
    <path
       id="path5"
       style="opacity:1;fill:#ff6600;stroke-width:3.31087;stroke-linecap:round"
       d="M 257.60547 315.46094 L 244.14062 323.69141 L 237.15625 326.43359 L 211.22266 321.69531 L 195.26172 320.94727 L 136.16016 348.12891 L 105.98438 386.28516 L 97.257812 425.68555 L 87.53125 466.83203 C 87.53125 466.83203 68.328666 519.45187 69.326172 518.95312 C 70.323679 518.45438 60.099609 561.09766 60.099609 561.09766 L 52.619141 576.80859 L 42.642578 596.50781 L 36.408203 629.17773 L 38.404297 647.88086 L 48.378906 670.82227 C 48.378906 670.82227 64.338431 708.22923 65.335938 707.73047 C 66.333444 707.23172 81.296875 730.92188 81.296875 730.92188 L 102.99219 753.86523 L 127.18164 767.08203 L 150.125 776.80859 L 200 792.26953 L 227.43164 753.61523 L 238.4043 661.8457 L 238.4043 640.39844 L 229.17773 642.64258 L 211.7207 669.07812 L 170.82227 693.76562 C 170.82227 693.76562 162.09554 674.56392 163.5918 673.56641 C 165.08806 672.56891 165.33594 605.23633 165.33594 605.23633 L 169.57617 572.31836 L 186.7832 548.87695 L 207.23242 545.88477 L 219.94922 537.9043 L 250.125 518.95312 L 275.0625 499.25195 L 298.25391 427.92969 L 303.49219 382.04492 L 281.04688 345.38672 L 264.83789 322.94336 L 257.60547 315.46094 z M 491.25 315.5 L 451 322.75 L 432.5 336.25 L 393 365.25 L 378.25 383.5 L 379 393 L 389.25 449.75 L 397.25 482 L 424.25 495.25 L 486 538 L 515.5 550.75 L 529.5 568 L 536.25 589.75 L 544.5 633 L 552 688.75 L 542.5 695.75 C 542.5 695.75 500.5 678.25 500.5 677.25 C 500.5 676.25 484.25 643.5 484.25 643.5 L 476.25 635.75 L 451 625.25 L 375.6582 542.43359 L 319.73633 572.36914 L 286.8418 584.53906 L 272.69727 600.32812 L 250 665.78906 L 232.56641 715.13086 L 234.21094 796.71094 L 238.81641 801.31641 L 293.65039 801.41016 L 352.38086 800.88086 L 407.75977 801.41016 L 473.36914 801.58789 L 501.93945 794.35547 C 501.93945 794.35547 544.26797 785.0084 545.32617 784.83203 C 546.38437 784.65566 595.5918 755.55469 595.5918 755.55469 L 641.97461 717.2832 L 665.78516 678.13086 L 665.96094 641.44531 L 650.44141 577.60156 L 623.10352 487.83008 L 598.23633 404.9375 L 583.77344 368.25391 L 563.8457 352.20508 L 553 347.5 L 491.25 315.5 z " />
    <path
       style="opacity:1;fill:#5599ff;stroke-width:3.31087;stroke-linecap:round"
       d="m 379.08847,513.40483 c 0,0 6.70241,-12.06435 7.7748,-12.33244 1.07239,-0.2681 13.40483,-20.37534 13.40483,-20.37534 l 81.23324,54.42359 c 0,0 13.67292,5.09384 17.96247,7.23861 4.28954,2.14477 21.17962,12.33244 21.17962,12.33244 l 13.67292,27.07775 6.97051,23.32439 1.87668,16.35389 1.34048,61.9303 -14.47721,-10.45577 -38.06971,-22.25201 -6.9705,-7.5067 -10.18767,-7.23861 c 0,0 -82.30563,-74.26273 -83.91421,-76.4075 -1.60858,-2.14478 -8.31099,-9.65148 -8.31099,-9.65148 l -32.43968,-31.90348 -57.64075,61.3941 -19.57105,18.49866 -56.03217,54.42359 -35.92493,23.0563 -13.40483,4.55764 c 0,0 -5.09383,-20.64343 -4.55764,-24.93297 0.53619,-4.28955 2.41287,-59.24933 3.48526,-61.12601 1.07238,-1.87668 13.40482,-35.92493 13.40482,-35.92493 l 20.37534,-9.11528 26.00536,-15.5496 33.51206,-22.78821 24.93298,-17.96246 7.7748,-5.89813 6.97051,10.99196 16.89008,16.35389 12.86863,-1.60858 L 346.91689,500 l 15.81769,9.65147 z"
       id="path4" />
    <path
       style="opacity:1;fill:#ffcc00;stroke-width:3.31087;stroke-linecap:round"
       d="m 262.32179,237.27088 38.28921,69.04277 -0.40733,15.27494 -12.21996,29.53157 -7.73931,-5.49898 -5.70265,-10.1833 -17.31161,-20.77393 -17.31161,10.99796 -22.60692,-0.40733 -12.01629,-9.36863 -2.444,-13.84929 1.222,-9.97963 c 0,0 10.1833,-8.96131 11.4053,-9.77597 1.22199,-0.81466 16.90427,-3.46232 16.90427,-3.46232 l -1.62933,-7.53564 -14.46028,-16.29328 -11.20163,-30.34624 7.33198,-17.51527 23.62525,-29.73523 8.14664,-25.25459 15.07128,-56.008144 15.88595,-26.069246 37.27088,-23.625255 34.21588,-2.851324 35.03055,0.203666 32.79023,15.071283 c 0,0 17.71894,26.272913 23.21792,30.346233 5.49898,4.073319 19.1446,46.232177 19.1446,46.232177 l 8.75764,37.88188 11.40529,16.08961 c 0,0 12.0163,16.70061 13.44196,18.12627 1.42566,1.42566 0.611,47.25051 0.611,47.25051 l 7.7393,18.32994 4.27699,19.95927 -5.90631,12.01629 -15.47862,10.59063 -31.36456,7.94297 -33.60489,24.84726 c 0,0 -20.9776,0.81466 -20.9776,-0.20367 0,-1.01833 2.64766,-20.9776 3.25866,-22.40326 0.611,-1.42566 17.71894,-48.4725 17.71894,-48.4725 l 9.16497,-45.21385 -5.90631,-34.82689 -27.90224,-16.90427 -30.14257,-21.18127 -13.44195,-18.5336 -6.72098,7.94297 -31.36456,32.58656 L 285.74338,200 267.61711,221.38493 Z"
       id="path3" />
    <path
       style="opacity:1;fill:#ffccaa;stroke-width:3.31087;stroke-linecap:round"
       d="m 304.62963,369.44444 -0.30864,26.54321 -11.41976,78.08642 0.4872,15.84329 c 0,0 8.59504,9.42148 9.09091,10.08264 0.49587,0.66116 9.75206,11.73554 9.75206,11.73554 0,0 11.57025,1.98347 12.3967,1.4876 0.82645,-0.49587 16.03306,-7.76859 17.52066,-8.76033 1.4876,-0.99174 11.23967,0.66116 12.23141,0.99174 0.99173,0.33057 17.19008,11.57024 20,11.07438 2.80991,-0.49587 11.40495,-11.90083 11.40495,-11.90083 l 11.73554,-20.82645 0.99174,-9.58677 -11.40496,-43.30579 -10.08265,-50.24793 -4.95867,-38.84298 -1.98348,-7.43801 15.04133,-31.40496 29.09091,-35.53719 c 0,0 10.57851,-36.03306 11.40495,-36.85951 0.82645,-0.82644 0.16529,-19.83471 0.16529,-20.99173 0,-1.15703 -7.27272,-11.57025 -7.27272,-11.57025 l -44.29752,-30.7438 -23.63637,-23.63637 -6.61157,4.95868 c 0,0 -23.80165,24.29752 -24.46281,24.6281 -0.66115,0.33058 -36.69421,28.42975 -36.69421,28.42975 L 271.73554,220 l 3.80165,45.61983 c 0,0 30.7438,51.90083 31.57025,51.90083 0.82644,0 -2.47781,51.92378 -2.47781,51.92378 z"
       id="path2" />
    <path
       id="path1"
       style="fill:#000000"
       d="m 368.4043,39.554688 c -7.16179,-0.177758 -15.56589,-0.01982 -25.73828,0.376953 -25.3144,0.987395 -29.78524,1.504986 -38.24024,4.429687 -27.54185,9.527103 -50.98071,35.737545 -61.07812,68.304692 -2.50106,8.06666 -6.0984,22.76796 -7.99414,32.66796 -7.08786,37.01431 -5.7888,33.85894 -19.19727,46.66602 -14.82444,14.15954 -18.07617,20.03611 -18.07617,32.66602 0,12.97306 2.97874,18.45301 22.47461,41.32812 l 7.94922,9.32617 -7.125,1.02539 c -9.16363,1.31877 -14.85869,4.90864 -19.92969,12.56446 -4.95751,7.48446 -6.2413,13.59272 -4.47656,21.30468 0.73604,3.21647 0.96781,6.06054 0.51562,6.32032 -0.4522,0.25979 -6.52161,2.0748 -13.48828,4.0332 -6.96667,1.9584 -15.96667,5.09635 -20,6.97266 -4.03333,1.8763 -9.73268,4.35451 -12.66602,5.50781 -11.16464,4.3896 -22.04567,14.30071 -37.51953,34.17969 -6.23446,8.0093 -12.81411,17.48297 -14.623044,21.05273 -4.903205,9.67601 -12.333965,42.24142 -13.349609,58.50586 -0.811157,12.9898 -1.321589,14.90402 -7.964844,29.87891 -5.371959,12.10919 -8.402139,21.67474 -12.458984,39.33398 -8.34194,36.31204 -10.751987,45.58696 -13.337891,51.33398 -1.319871,2.93334 -5.109051,11.33568 -8.419922,18.67383 -7.017667,15.55383 -10.188304,29.96927 -10.208984,46.40235 -0.01269,10.07902 0.644342,13.5733 4.638672,24.66601 6.057724,16.82299 18.389511,42.91122 24.824218,52.51758 2.797533,4.17643 5.085938,8.0934 5.085938,8.70508 0,0.61168 1.199349,1.97804 2.666016,3.03515 1.466666,1.05712 2.667968,2.47992 2.667968,3.16211 0,1.95927 19.589336,25.55033 25.058594,30.17774 2.717632,2.29933 7.641402,6.74556 10.941402,9.8789 7.44315,7.06723 25.34011,13.99845 74.66602,28.91993 l 34,10.28515 137.33398,0.1211 137.33594,0.12109 31.99805,-9.17578 31.99805,-9.17774 22.33203,-13.15625 c 13.43909,-7.918 29.96624,-19.16739 41.50781,-28.25195 18.58372,-14.62754 19.54974,-15.63877 31.18164,-32.66601 6.60205,-9.66435 12.9245,-19.78128 14.05078,-22.48047 2.46949,-5.91825 6.69548,-25.97898 5.7832,-27.45508 -0.35758,-0.57857 -1.03952,-6.1329 -1.51562,-12.34375 -1.05503,-13.76339 -11.48305,-57.4887 -21.27734,-89.21485 -8.64174,-27.99276 -10.15662,-33.45471 -14.80079,-53.4121 -1.96247,-8.43334 -5.50433,-20.13334 -7.87109,-26 C 620.63149,467.2183 620.30734,466.184 611.43359,434 c -11.04124,-40.04516 -18.42547,-60.74859 -24.6914,-69.23047 -5.44363,-7.36877 -5.26638,-7.24792 -44.07617,-29.94141 -6.96667,-4.07365 -12.86689,-7.87701 -13.11133,-8.45117 -0.24445,-0.57417 -1.07167,-1.04297 -1.83985,-1.04297 -0.76819,0 -7.64166,-2.78877 -15.27343,-6.19531 l -13.875,-6.19336 2.59375,-2.80664 c 4.01181,-4.34074 8.34792,-13.54363 9.13086,-19.38086 0.59489,-4.43521 -0.41785,-7.66546 -6.31055,-20.13281 l -7.01953,-14.85156 1.1582,-10.21875 c 0.63662,-5.62127 1.16939,-15.62071 1.18359,-22.22071 0.0311,-14.49923 -2.05145,-19.45777 -13.99218,-33.33398 -12.18934,-14.16513 -15.51308,-21.95471 -18.6543,-43.70508 -2.97894,-20.62674 -5.8211,-30.18654 -13.51563,-45.47851 C 442.49988,79.669162 429.01877,63.28062 413.63281,52.791016 400.2058,43.636961 389.88966,40.08796 368.4043,39.554688 Z m 1.7207,9.798828 c 10.3743,-0.02156 21.06341,3.021177 30.93555,8.80664 6.79174,3.980223 15.79792,11.796327 17.70898,15.367188 1.18578,2.215652 0.9037,2.188889 -3.30273,-0.292969 -4.3335,-2.556826 -21.60778,-6.204716 -22.96289,-4.849609 -0.34366,0.343663 2.09968,2.220369 5.42968,4.171875 9.53267,5.586518 20.74728,15.517373 28.85547,25.550781 4.10075,5.074448 7.88625,9.975908 8.41211,10.892578 1.81085,3.15664 -1.21508,1.54395 -7.11914,-3.79297 C 416.26484,94.524996 384.18834,82.174589 364.20508,80.611328 L 352,79.65625 v -4.464844 c 0,-3.168996 0.87027,-5.023544 3,-6.392578 3.40579,-2.189314 16.15647,-4.756741 24.24414,-4.882812 10.68809,-0.166606 -0.43403,-2.893656 -13.18359,-3.232422 l -11.94141,-0.31836 -0.0606,-3.80664 c -0.0816,-5.217909 4.29656,-7.180618 16.06641,-7.205078 z m -39.60938,0.43164 c 1.78957,-0.0589 3.47132,0.04976 5.01758,0.339844 5.66107,1.062024 6.46521,2.384315 4.4336,7.289062 -1.46359,3.533415 -2.2313,3.920674 -7.79492,3.939454 -6.29562,0.02125 -20.93202,2.963257 -22.48829,4.519531 -0.47325,0.473251 3.30414,0.491649 8.39453,0.04102 12.52434,-1.108733 19.74741,1.225112 20.35938,6.580079 0.91018,7.964385 -0.43645,9.624565 -10.42383,12.835937 -8.8013,2.829994 -22.33337,10.12757 -21.08789,11.373047 0.31172,0.311717 3.57875,-0.577884 7.25977,-1.976563 3.68103,-1.398678 10.42304,-2.964633 14.98242,-3.480468 l 8.28906,-0.9375 -0.39453,9.638672 -0.39648,9.638669 -7.44532,3.02539 c -8.96386,3.64121 -23.80505,12.94374 -21.76172,13.64062 0.80227,0.27362 4.14675,-0.65443 7.43164,-2.0625 7.29772,-3.12815 20.81226,-6.26392 21.97657,-5.09961 0.46801,0.46802 0.31406,4.00397 -0.3418,7.85743 l -1.19141,7.00585 -14,8.76563 c -17.02949,10.6627 -22.00322,16.49011 -35.24609,41.29883 C 274.18173,206.32214 271.45871,208.67 249.59375,215.47266 223.92714,223.45808 220,226.38477 220,237.5332 c 0,4.54919 1.25579,8.68189 4.56836,15.03711 2.51233,4.81996 4.35464,8.76367 4.0957,8.76367 -0.25895,0 -2.32547,-2.25 -4.59375,-5 -6.29125,-7.62734 -9.40429,-17.37785 -9.40429,-29.45898 0,-8.78717 0.47806,-11.00299 3.14453,-14.61719 3.53281,-4.78845 11.30782,-10.92252 22.18945,-17.50586 4.03333,-2.44015 10.32567,-6.90777 13.98242,-9.92773 8.73801,-7.21637 4.13905,-1.11892 -6.4668,8.57422 -4.18435,3.82426 -7.34445,7.21609 -7.02343,7.53711 0.32101,0.32101 3.09837,-0.70055 6.17383,-2.26953 3.07546,-1.56899 5.89192,-2.55339 6.25781,-2.1875 0.3659,0.36589 -6.20565,3.96881 -14.60352,8.00586 C 222.76975,211.9599 216,217.55316 216,222.92578 c 0,2.27302 0.93269,1.78391 5.66602,-2.97266 5.53296,-5.56011 15.88074,-11.08742 36.30664,-19.39453 13.48005,-5.48227 18.07383,-10.28674 26.66992,-27.89843 C 288.68949,164.36883 292,157.19754 292,156.72461 c 0,-0.47294 -2.00642,0.67036 -4.45898,2.54101 -8.60025,6.55974 -8.30876,4.69818 1.95117,-12.43359 4.48767,-7.49338 7.87949,-13.90371 7.53711,-14.24609 -1.34118,-1.34118 -7.85138,5.28143 -15.91407,16.18945 -10.06117,13.61176 -11.20653,12.32917 -5.82031,-6.52148 4.16324,-14.57047 11.08188,-29.08862 18.96485,-39.79688 3.15397,-4.284361 5.28677,-7.784243 4.73828,-7.777342 -3.96426,0.04974 -17.72179,10.478202 -28.81641,21.845702 -11.67256,11.95966 -12.91017,12.89937 -11.01562,8.35156 4.72839,-11.35036 21.28642,-28.908155 41.2832,-43.775388 11.18962,-8.319272 10.86332,-9.461157 -1.39844,-4.892578 -9.05233,3.372784 -15.97014,7.508973 -24.7168,14.777344 C 270.85065,93.880939 268,95.794319 268,95.240234 c 0,-2.98386 9.54418,-15.083127 18.66992,-23.667968 13.51383,-12.712836 31.31875,-21.374797 43.8457,-21.78711 z m 37.88086,37.041016 C 385.3534,86.556583 409.37601,100.50302 424.68945,121.96289 432.00906,132.22041 444.13439,156 442.04492,156 c -0.30566,0 -3.4165,-3.75065 -6.91211,-8.33398 -16.364,-21.45598 -33.90049,-35.71625 -52.17773,-42.42969 -2.7774,-1.02017 -2.06824,-0.0184 3.04492,4.30273 14.7269,12.44566 25.88619,26.46833 40.68945,51.12696 3.16535,5.27269 3.09766,5.2395 -6.07617,-2.89649 -5.10363,-4.52625 -12.86123,-11.87495 -17.23828,-16.33203 -4.37704,-4.45708 -8.41426,-8.10352 -8.97266,-8.10352 -0.55839,0 2.12159,4.53768 5.95704,10.08399 15.42982,22.31261 23.23982,31.93235 29.25,36.02734 5.78058,3.93855 26.17348,11.88315 27.38671,10.66992 0.28903,-0.28903 -2.10212,-2.33221 -5.3125,-4.54101 -6.24091,-4.29386 -10.12673,-8.24024 -8.11328,-8.24024 0.67646,0 1.79943,0.56229 2.4961,1.25 0.69666,0.68771 6.96692,4.04738 13.93359,7.4668 15.11067,7.41673 20.62061,11.36889 23.43359,16.8086 2.64848,5.12158 2.14815,5.59304 -2.40625,2.27539 -2.16109,-1.57425 -10.26371,-3.99198 -19.99609,-5.9668 -22.84795,-4.63614 -28.07858,-7.45646 -41.29883,-22.27149 -12.03805,-13.49022 -18.69923,-19.6906 -27.73242,-25.8125 -7.97675,-5.40593 -22.98569,-12.82633 -31.75195,-15.69921 -5.13688,-1.68346 -7.42643,-3.22552 -8.33203,-5.60743 -1.93039,-5.07732 -1.51367,-10.72414 0.85937,-11.63476 3.63124,-1.39344 11.87272,-0.88721 18.61719,1.14258 3.56567,1.0731 6.72125,1.71234 7.01172,1.42187 0.98208,-0.98208 -13.06129,-7.42616 -20.08985,-9.21875 l -6.98047,-1.7793 -0.40429,-6.88671 c -0.3574,-6.089775 0.0407,-7.331763 3.44922,-10.740239 3.49757,-3.497574 8.36527,-5.165996 14.01757,-5.255859 z m -11.58984,56.818358 c 3.62728,-0.36695 18.55046,3.14294 25.18359,6.17969 8.7833,4.02112 15.63274,10.99344 23.08594,23.49805 3.15884,5.29974 5.55949,9.76127 5.33399,9.91601 -0.22551,0.15474 -8.80951,-4.96843 -19.07618,-11.38476 C 374.43009,161.28913 356,146.78774 356,144.05078 c 0,-0.22335 0.28846,-0.35383 0.80664,-0.40625 z m -25.04297,1.98633 c 1.37919,-0.37602 1.57031,0.058 1.57031,1.03125 0,2.67065 -10.13897,12.44499 -20.60351,19.86328 -16.22431,11.50136 -15.77806,11.39503 -11.3418,2.69922 4.03808,-7.91527 11.93132,-15.11298 21.67188,-19.76172 4.75626,-2.26995 7.32394,-3.45601 8.70312,-3.83203 z m -70.72265,0.82422 c 0.29416,0.88247 -0.74047,5.8011 -2.29883,10.93164 -2.13031,7.0136 -4.25367,10.81181 -8.5586,15.30469 -3.14912,3.2866 -6.43002,5.97461 -7.28906,5.97461 -2.25361,0 -1.91872,-6.09586 0.60742,-11.06641 3.33045,-6.55313 16.9357,-22.95465 17.53907,-21.14453 z m 88.26953,0.3457 c 0.3123,0.0523 0.67963,0.44823 1.16797,1.19922 0.71528,1.1 5.04367,7.01967 9.61718,13.1543 9.53422,12.78862 18.02468,19.54704 38.05469,30.29101 8.51675,4.56833 14.91536,8.97165 16.72266,11.50977 l 2.92578,4.11133 -3.89844,-0.91016 c -19.24958,-4.48934 -47.55905,0.3292 -53.28516,9.06836 -3.08186,4.7035 -4.36426,18.64415 -3.25976,35.44141 0.9429,14.33954 0.33449,17.73344 -3.43945,19.18164 C 351.72035,270.69022 344,266.95059 344,265.04492 344,264.4697 343.39935,264 342.66602,264 c -0.73334,0 -1.33204,1.49549 -1.33204,3.32422 0,2.3534 1.57867,4.46842 5.40235,7.23828 4.44595,3.22063 6.27381,3.77811 10.33203,3.14258 L 362,276.93164 l -2.66406,3.00391 c -2.25464,2.54263 -3.58369,2.89201 -8.66602,2.27343 -7.08272,-0.86205 -21.58186,1.72256 -20.91406,3.72852 0.64448,1.93593 17.57344,4.92741 25.19922,4.45312 5.30508,-0.32995 6.00376,-0.10747 4.4707,1.42383 -2.90758,2.90425 -13.02372,3.47233 -17.80469,1 -5.60778,-2.8999 -5.99658,-2.74361 -3.79101,1.52149 3.28383,6.35023 6.46096,8.3188 12.97851,8.03515 4.67439,-0.20344 6.99007,0.51524 10.65235,3.3086 l 4.67968,3.57031 2.26368,-3.83203 c 1.24882,-2.11409 2.26172,-6.58998 2.26172,-9.99024 0,-5.38617 0.42973,-6.32406 3.41992,-7.46093 4.49298,-1.70825 9.91406,-1.66133 9.91406,0.0859 0,6.14232 -14.52227,22.35211 -23.31836,26.02735 C 358.15405,315.13617 351.96867,316 346.9375,316 c -8.08647,0 -9.90695,-0.50331 -15.70312,-4.33398 -9.58756,-6.33641 -21.37683,-18.81626 -29.44922,-31.17579 -9.41795,-14.41969 -18.79049,-34.13484 -20.44532,-43.00585 -1.42983,-7.66481 -1.81315,-20.1504 -0.61914,-20.1504 2.96542,0 11.61533,6.32929 16.48633,12.0625 9.97113,11.7361 17.38054,13.12779 33.83203,6.35547 11.46201,-4.71836 12.06766,-5.59718 11.37696,-16.5039 -0.39008,-6.1598 -0.73736,-6.72517 -5.4961,-8.95899 -10.09994,-4.74105 -20.93881,-6.6488 -33.91992,-5.9707 -6.78333,0.35434 -12.33398,0.20376 -12.33398,-0.33398 0,-2.00544 12.38718,-12.29334 23.20117,-19.26954 6.15072,-3.96788 13.4544,-9.20176 16.22851,-11.63086 4.30792,-3.77213 16.1909,-20.20511 18.38282,-25.41992 0.26277,-0.62516 0.51972,-0.9156 0.83203,-0.86328 z m 73.52148,47.02539 c 1.86927,0.58094 5.92369,2.40411 13.2207,5.79688 23.45624,10.90605 25.87983,12.61108 30.0625,21.16015 2.94301,6.01528 3.44133,8.46919 2.80665,13.82813 -1.68481,14.22556 -12.53221,28.86426 -25.89258,34.94336 -4.56724,2.07814 -8.99085,3.77929 -9.83008,3.77929 -2.53636,0 1.35204,-3.82164 7.63867,-7.50586 3.14467,-1.8429 7.51275,-5.39537 9.70703,-7.89453 3.64267,-4.14876 4.56242,-6.76625 5.83203,-16.59961 0.40451,-3.13295 0.5845,-3.02771 2.98047,1.75 2.12872,4.24481 2.7062,4.68402 3.50196,2.66602 1.44801,-3.67206 1.3106,-11.79262 -0.27149,-15.99609 -2.21439,-5.88347 -10.16357,-13.31425 -23.92187,-22.36329 -6.96667,-4.58209 -14.14308,-9.94266 -15.94727,-11.9121 -1.44078,-1.57275 -1.75599,-2.23329 0.11328,-1.65235 z M 411.33398,213.125 404.66602,220 c -3.66667,3.78175 -8.28538,7.72902 -10.26563,8.77148 -5.12089,2.6958 -11.48851,2.25182 -18.21875,-1.26953 l -5.81641,-3.04297 6.48438,-2.77539 c 8.1943,-3.50674 19.22824,-6.55503 27.81641,-7.68359 z m -117.56054,1.78906 C 298.41167,213.99559 332,220.74169 332,222.5918 c 0,0.57441 -3.52562,2.62511 -7.83398,4.55859 -4.30837,1.93348 -8.05707,3.46259 -8.33204,3.39649 -8.90173,-2.14116 -26.65663,-14.72269 -22.06054,-15.63282 z m 190.53515,6.78516 c 0.17993,-0.15022 0.46706,0.18601 0.91211,0.9668 1.80975,3.1749 -0.70029,16.90877 -4.51562,24.70703 -6.57137,13.43138 -19.39665,25.26738 -37.38086,34.49609 -16.00824,8.21474 -14.67397,5.31499 2.0918,-4.54687 10.19799,-5.99859 16.71782,-12.70247 26.59765,-27.34375 7.29691,-10.81355 11.95515,-21.00817 12.02735,-26.32618 0.0158,-1.16558 0.0876,-1.8029 0.26757,-1.95312 z m -68.69336,4.13672 c 0.37706,0.37707 -0.30129,5.11502 -1.50585,10.52929 -2.44554,10.99219 -9.71441,26.44034 -17.3125,36.79102 -5.41628,7.37846 -5.92074,7.52086 -20.79688,5.91211 -8.01558,-0.86683 -8.50543,-1.33804 -5.4375,-5.23828 5.57397,-7.08615 6.06162,-16.21898 1.39648,-26.16406 -2.26395,-4.82624 0.17145,-11.11399 3.73829,-9.6504 9.31369,3.82172 21.32388,0.80409 33.35937,-8.38281 3.22969,-2.46527 6.18152,-4.17393 6.55859,-3.79687 z M 249.39844,244.66602 251.24609,254 c 1.01554,5.13333 2.50945,11.04676 3.32032,13.14062 0.81086,2.09387 8.27852,10.82443 16.59375,19.40235 12.44797,12.84121 15.63115,16.96996 18.02539,23.36914 3.47995,9.30101 2.80207,11.23598 -1.19336,3.4043 -1.57369,-3.08469 -9.14018,-12.12076 -16.8125,-20.08008 -16.52877,-17.14707 -20.37512,-24.18887 -21.22071,-38.84961 z m 228.49609,19.52343 c 0.58128,0.51363 -2.27522,4.21948 -8.11328,10.08399 -5.01294,5.03565 -14.81458,13.01491 -21.78125,17.73242 -14.8651,10.06597 -22.78444,17.08111 -28.24219,25.01367 -2.1745,3.16053 -5.06656,8.87435 -6.42578,12.69727 l -2.4707,6.94922 -0.0977,-5.70313 c -0.17489,-10.24113 12.80364,-31.3614 24.95117,-40.60351 3.45681,-2.63003 12.28581,-8.23227 19.61914,-12.44922 7.33334,-4.21695 15.29984,-9.15552 17.70313,-10.97461 2.92357,-2.2129 4.50866,-3.05428 4.85742,-2.7461 z m -237.93555,0.25391 c 0.76763,-0.54373 1.6107,2.05218 2.54883,7.77344 2.39761,14.62189 5.44351,19.5364 23.0293,37.1582 8.75954,8.77747 16.23697,15.95898 16.61719,15.95898 1.36562,0 -1.19244,-6.08311 -4.3086,-10.24414 -3.89176,-5.19668 -4.12202,-7.02295 -0.46875,-3.71679 4.01329,3.63198 8.12683,10.80085 9.37696,16.34375 0.8379,3.71513 0.49654,6.25787 -1.41797,10.58593 -1.38587,3.13299 -2.70317,5.69065 -2.92774,5.68165 -0.22457,-0.009 -2.14957,-4.31574 -4.27734,-9.57032 -4.10555,-10.13878 -8.24783,-14.93477 -27.34375,-31.65625 -12.0901,-10.58679 -14.07883,-14.78305 -12.92188,-27.2539 0.6341,-6.83493 1.32613,-10.51682 2.09375,-11.06055 z m 249.21485,4.41602 c 0.31161,0.21147 0.66507,0.64418 1.11523,1.24414 5.4646,7.28302 8.65931,15.8034 8.02735,21.41015 -0.35294,3.13127 -1.83925,7.58507 -3.30274,9.89649 l -2.66015,4.20117 -0.61133,-7.375 c -0.44399,-5.35396 -1.61687,-8.69285 -4.27344,-12.17578 l -3.66016,-4.79883 2.2793,-6.86133 c 1.60025,-4.8179 2.1511,-6.17543 3.08594,-5.54101 z m -266.78321,16.5332 c 0.93715,0.3228 0.37992,2.23017 -1.66796,5.72461 -6.79011,11.58645 -3.37636,19.51075 11.53125,26.76367 9.161,4.45705 9.46701,4.741 5.08007,4.75 -2.56666,0.005 -7.96222,-1.52354 -11.99023,-3.39844 -20.09243,-9.35237 -23.80403,-20.2362 -10.25,-30.05469 3.92931,-2.84638 6.35973,-4.10795 7.29687,-3.78515 z m 253.94922,9.12109 -4.94922,6.74219 C 468.66802,304.9648 467.0404,308 467.77539,308 c 0.73499,0 4.17213,-1.21412 7.63672,-2.69922 7.02403,-3.01085 8.83908,-2.59359 5.37305,1.23633 -2.55356,2.82165 -5.06318,3.90568 -18.78516,8.125 -5.13333,1.57843 -11.73268,4.26615 -14.66602,5.9707 -2.93333,1.70454 -8.18463,5.61011 -11.66796,8.67969 -7.41717,6.53616 -8.017,5.49728 -2,-3.46484 4.22368,-6.29104 5.80021,-7.48494 33.79492,-25.5918 z M 230.25,301.00977 c 1.13451,0.10138 3.76677,2.33932 8.75391,7.32421 9.60864,9.60433 9.37391,11.44389 -0.64844,5.0879 -6.5257,-4.13847 -9.46061,-8.09298 -8.77344,-11.82422 0.077,-0.4181 0.2898,-0.62169 0.66797,-0.58789 z M 257.30078,320 c 1.12032,0 18.68651,20.63776 20.92188,24.58008 4.6044,8.12035 -6.97915,5.81088 -22.35547,-4.45703 -4.54072,-3.03218 -8.48721,-5.28038 -8.77149,-4.9961 -0.28429,0.28429 2.48832,5.01114 6.16211,10.50391 7.8454,11.72984 20.22142,23.7748 36.50391,35.5293 6.4362,4.64636 11.48571,9.09952 11.2207,9.89453 -0.98771,2.96313 -3.69693,2.24085 -16.41601,-4.37305 -26.88859,-13.98202 -39.92097,-26.38703 -56.48047,-53.76562 l -3.07422,-5.08399 7.9414,0.89844 c 8.28365,0.93718 12.7891,-0.45566 20.22657,-6.25195 1.7489,-1.36298 3.60364,-2.47852 4.12109,-2.47852 z m 230.07422,1.57812 c 7.89281,0.37478 11.37157,1.41064 22,6.55274 20.56187,9.94797 60.22629,33.07259 65.74219,38.32812 9.0634,8.63556 15.56678,25.32222 25.54492,65.54102 5.77991,23.29702 18.54222,65.21848 31.93164,104.89258 31.89729,94.51465 35.99199,125.95129 20.29102,155.77344 -5.74306,10.90828 -32.92704,38.00643 -53.84766,53.67578 -18.99224,14.22501 -39.1856,26.46689 -53.54492,32.46289 -5.58758,2.33321 -12.57346,4.52053 -15.52539,4.85937 -4.90039,0.5625 -5.98099,0.0648 -12.41797,-5.72265 -16.39874,-14.74387 -31.90305,-51.73068 -36.9336,-88.10743 -1.88067,-13.59954 -2.91549,-41.84625 -1.95703,-49.8457 1.07754,0.91916 2.60271,2.11171 3.87305,3.08594 -0.042,3.45864 0.0224,8.26906 0.29883,14.5918 1.41292,32.31605 9.30281,69.92119 19.13476,91.20117 4.55659,9.86213 7.56493,13.78732 3.9668,5.17578 -3.25308,-7.78572 -2.2186,-8.031 5.06836,-1.20508 3.85,3.60641 8.77642,7.82759 10.94727,9.38086 3.58305,2.56372 3.80109,3.14117 2.37304,6.27539 -1.13056,2.48131 -2.24118,3.21932 -3.94726,2.62305 -2.11582,-0.73949 -2.15563,-0.60696 -0.37305,1.21679 1.1,1.12541 3.38172,2.46172 5.07031,2.96875 9.45645,2.83951 23.19048,-29.51764 28.1836,-66.39843 1.80743,-13.35005 1.81465,-43.95622 0.0137,-60.62305 -1.78332,-16.50346 -8.46943,-49.58991 -12.83594,-63.52148 -7.17179,-22.88199 -19.66623,-40.8438 -34.43359,-49.49805 -5.62332,-3.29549 -6.88878,-3.518 -15.27735,-2.69141 -10.05836,0.99113 -13.40111,-0.68272 -6.38672,-3.19726 6.98864,-2.50531 22.56255,-3.22983 30.47852,-1.41797 3.95365,0.90494 14.08815,4.95373 22.52148,8.99609 8.43334,4.04237 22.44659,10.24764 31.14063,13.78906 34.16809,13.91801 46.69911,25.15062 68.65234,61.53711 15.10037,25.02818 15.38774,25.29115 11.38477,10.4961 -10.61513,-39.23376 -23.54437,-60.87243 -41.19922,-68.95508 -7.63862,-3.49708 -23.93618,-6.99343 -33.3125,-7.14648 -7.58036,-0.12374 -4.06027,-1.63152 13.70703,-5.875 15.8296,-3.78071 26.95899,-7.87616 26.95899,-9.91993 0,-1.90843 -14.4332,-6.74673 -24,-8.04492 -8.61908,-1.16959 -20.28036,-0.1886 -29.32422,2.4668 -7.56865,2.22226 -7.7351,1.56373 -0.7168,-2.8418 14.69782,-9.22613 27.09034,-26.86671 31.89648,-45.4082 2.17664,-8.3972 4.33238,-27.51852 2.95899,-26.24414 -0.47669,0.44233 -5.04004,6.37506 -10.14063,13.18554 -10.43693,13.93574 -52.6846,57.62122 -51.25586,53 1.33643,-4.32263 4.70396,-10.77156 18.63868,-35.68945 6.82621,-12.20654 14.88827,-27.98825 17.91406,-35.07031 5.74359,-13.44327 9.94477,-26.09429 8.98437,-27.05469 -0.30853,-0.30853 -9.99201,13.24999 -21.51757,30.13086 C 546.57795,466.1875 536.95091,480 536.70898,480 c -0.24194,0 7.88959,-22.05 18.07032,-49 10.18073,-26.95 18.33864,-49.54354 18.1289,-50.20898 -1.05231,-3.33869 -15.61392,20.20492 -28.20703,45.60546 -7.79302,15.71866 -14.463,28.28699 -14.82031,27.92969 -1.09036,-1.09037 8.57654,-28.52294 16.29883,-46.2539 4.00965,-9.20645 7.66177,-17.63829 8.11523,-18.73829 1.37571,-3.33716 -4.71195,2.63493 -9.92773,9.74024 -2.60632,3.55051 -7.39855,11.06213 -10.64844,16.6914 L 527.81055,426 l 0.74609,-15.33398 c 0.41028,-8.43334 0.26496,-21.93334 -0.32226,-30 L 527.16797,366 l -2.26953,5.00195 c -3.48434,7.68102 -5.85509,20.86628 -8.21289,45.67774 -3.43716,36.16982 -11.06173,70.83685 -19.16407,87.13867 -4.45191,8.95722 -7.2284,13.51562 -8.23242,13.51562 -0.40449,0 0.33475,-6.1513 1.64258,-13.66796 2.6788,-15.39629 5.6128,-78.87036 3.98828,-86.29493 l -1.01367,-4.6289 -3.12695,8.6289 c -3.79394,10.47168 -10.84438,24.73327 -17.1211,34.62891 -7.20997,11.36696 -20.73764,29.33398 -22.08593,29.33398 -0.6668,0 -0.11494,-1.6513 1.22656,-3.66796 15.67064,-23.55761 26.56106,-51.49968 31.90429,-81.86133 3.19786,-18.17114 2.58137,-19.08012 -3.9375,-5.80469 -3.24091,6.6 -9.69019,17.72668 -14.33007,24.72656 -7.51618,11.33915 -32.69647,44.66646 -41.76172,55.27344 l -3.41797,4 2.13476,-5.33398 c 18.49041,-46.18637 35.40356,-82.90279 44.9629,-97.61524 3.23404,-4.97741 10.79246,-14.60143 16.79687,-21.38476 6.0044,-6.78334 10.5324,-12.33204 10.0625,-12.33204 -2.72829,0 -20.11138,13.2855 -26.95703,20.60352 -15.03268,16.06999 -43.38234,59.29915 -51.6582,78.77148 -2.0232,4.76041 -3.94924,8.38475 -4.28125,8.05274 -1.42077,-1.42076 7.36199,-24.86063 15.65234,-41.77344 11.04246,-22.52728 44.62669,-81.67074 47.75,-84.08984 1.54535,-1.19692 5.30681,-1.62181 11.65625,-1.32032 z m -279.93164,4.03711 c 0.89155,0.2112 6.97975,8.48477 13.5293,18.38477 19.94925,30.15437 44.14955,58.6822 62.20898,73.33398 l 7.39453,6 -0.79883,8 c -0.43899,4.4 -0.98719,8.21868 -1.21875,8.48633 -0.95082,1.09896 -18.33975,-9.70375 -29.39062,-18.25781 -15.94285,-12.34076 -26.66301,-24.025 -47.04883,-51.28125 -9.44028,-12.62184 -19.40418,-25.04857 -22.14258,-27.61523 L 184.99805,338 l 7.04687,13.33398 c 24.86946,47.05109 48.02298,81.5289 74.79492,111.38086 9.01749,10.05492 11.07029,12.9619 8.04688,11.39844 -6.38409,-3.30134 -21.14101,-14.82532 -34.07813,-26.61328 -9.05167,-8.24764 -11.62166,-10.01769 -10.86328,-7.48438 1.66755,5.57032 18.92978,40.86474 26.19727,53.56446 3.76569,6.58043 6.32398,12.4387 5.68554,13.01758 -0.63844,0.57888 -7.59894,5.33669 -15.46679,10.57226 l -14.30469,9.51953 -0.83984,-3.67773 c -5.80718,-25.43681 -15.89954,-58.80447 -19.86524,-65.67774 -1.7225,-2.98539 -1.93983,-0.34238 -2.08984,25.33204 -0.18916,32.37454 -1.25239,32.0639 -4.54102,-1.33204 -3.12647,-31.7492 -5.60802,-47.29235 -10.93945,-68.50586 -4.58114,-18.22812 -13.06117,-44.34427 -15.13672,-46.61914 -1.94289,-2.12947 -3.04777,34.69101 -1.42187,47.36914 0.85308,6.65191 1.3013,12.34324 0.99609,12.64844 -0.30521,0.30521 -5.09645,-11.62027 -10.64648,-26.50195 l -10.0918,-27.05859 -0.004,10.66796 c -0.003,6.86605 1.10233,14.94171 3.10352,22.66602 1.70991,6.6 2.96357,12.16641 2.78515,12.36914 -0.17842,0.20273 -5.50954,-7.88857 -11.8457,-17.98047 C 145.18337,390.29676 140,382.68748 140,383.47852 c 0,6.18878 12.12942,33.4144 26.82031,60.20507 6.61114,12.05623 11.79954,22.13992 11.53125,22.40821 -1.10111,1.10112 -23.75799,-18.43268 -32.74218,-28.22852 -11.10233,-12.10532 -11.06283,-11.10865 0.49218,12.2207 4.01814,8.11253 10.87884,19.21188 15.2461,24.66602 4.36726,5.45413 7.93664,10.51667 7.93164,11.25 -0.005,0.73333 -6.18694,-4.96602 -13.73633,-12.66602 -13.77324,-14.04803 -25.1281,-28.33093 -32.24414,-40.55859 -2.0991,-3.60695 -4.03952,-5.88728 -4.3125,-5.06836 -0.89437,2.68312 6.0081,26.07427 10.70898,36.29297 4.98578,10.83798 19.68821,33.67183 29.09766,45.19141 C 172.11022,525.49514 173.70221,528 170.75391,528 c -0.6853,0 -5.82553,-3.63872 -11.42188,-8.08594 -15.11047,-12.00773 -24.55528,-17.72753 -38.30664,-23.19531 -6.79747,-2.70279 -16.10807,-6.95775 -20.69141,-9.45703 C 95.750654,484.76243 92,483.31161 92,484.03906 c 0,3.22591 5.920663,13.43884 10.41406,17.96485 3.00186,3.02364 12.06659,8.51933 23.25196,14.09375 17.75235,8.84719 34.37791,19.00433 34.29101,20.95117 -0.0745,1.66965 -3.53601,5.61719 -4.92578,5.61719 -0.73763,0 -6.972,-2.6512 -13.85352,-5.89258 -13.30679,-6.26787 -47.843746,-16.97622 -47.843746,-14.83399 0,0.36125 5.08122,4.49035 11.292966,9.17578 11.16643,8.42267 12.34354,10.21875 6.69727,10.21875 -1.5938,0 -7.64272,1.20558 -13.443361,2.67969 -5.800639,1.47411 -15.502351,5.04827 -21.558593,7.94336 -10.380659,4.96231 -10.970823,5.09569 -10.314454,2.32031 11.276636,-47.68182 16.089649,-63.7341 24.113282,-80.4082 4.850505,-10.07995 6.400687,-15.37511 9.169922,-31.33203 4.753634,-27.39144 9.145374,-42.60576 16.740234,-57.98047 10.7189,-21.69886 26.07964,-36.09729 48.83203,-45.7793 10.89678,-4.63699 40.2555,-13.71277 42.58008,-13.16211 z m 245.37305,0.16211 c 0.33589,0.0578 0.51757,0.28334 0.51757,0.69922 0,3.95554 -9.78069,21.67522 -27.33398,49.52344 -5.77794,9.16667 -14.33873,22.96602 -19.02344,30.66602 -8.24411,13.55039 -12.20252,19.00159 -10.65429,14.66796 0.39299,-1.1 4.98036,-12.65816 10.19531,-25.68359 C 411.73253,382.62496 416,371.61312 416,371.17969 c 0,-0.43342 -4.05,2.78329 -9,7.14843 -9.17771,8.09335 -23.95652,18.50865 -24.89062,17.54102 -0.2843,-0.2945 -0.72583,-2.29567 -0.98047,-4.44726 -0.42644,-3.60308 0.48473,-4.54942 11.53711,-11.96876 12.40576,-8.32784 21.82284,-17.12543 39.79492,-37.18554 8.0935,-9.03383 18.00423,-16.89496 20.35547,-16.49024 z m -109.86719,5.56836 c 0.5006,-0.16255 1.04911,0.10049 1.81055,0.73242 2.63895,2.19014 2.38309,6.02797 -0.58985,8.86915 -1.37274,1.3119 -2.88818,5.10238 -3.36914,8.42187 -0.48096,3.31949 -1.75825,7.73736 -2.83789,9.81836 -1.07963,2.081 -1.96289,5.89144 -1.96289,8.4668 0,2.57536 -2.43695,15.04713 -5.41602,27.71484 -3.2497,13.81846 -5.24988,25.3525 -5,28.83203 L 326,430 l 2.19141,-4 c 2.14378,-3.91334 4.43204,-13.06804 11.3164,-45.28516 3.58047,-16.75575 6.2907,-23.19583 7.94727,-18.8789 1.43802,3.74744 -1.89028,41.02249 -4.7207,52.87304 -2.25326,9.434 -2.42776,12.47122 -1.25196,21.79297 3.31775,26.30308 -3.1375,60.61363 -12.56836,66.79297 -9.01843,5.9091 -21.98415,1.64263 -30.23828,-9.94922 -2.80472,-3.93886 -2.81439,-4.17959 -0.75781,-17.66992 C 299.06469,468.1537 300.8861,451.2 301.9668,438 c 2.62093,-32.01266 4.28874,-43.28467 8.18164,-55.2793 4.52487,-13.94187 17.15517,-40.79092 18.99804,-40.38672 0.83586,0.18334 1.52335,-0.71666 1.52735,-2 0.004,-1.28333 1.53388,-4.13398 3.40234,-6.33398 2.66779,-3.14118 3.07562,-3.33418 1.89258,-0.89648 -0.82855,1.7073 -1.19444,3.91875 -0.8125,4.91406 0.38194,0.99532 0.25138,1.99976 -0.28906,2.23047 -1.08957,0.46513 -16.66802,43.94307 -18.8125,52.5039 -2.00918,8.02075 -3.74376,21.91407 -2.73633,21.91407 0.48199,0 5.5361,-14.85 11.23242,-33 5.69632,-18.15 11.50204,-34.98296 12.90234,-37.40821 1.40032,-2.42525 2.54688,-5.31558 2.54688,-6.42187 0,-1.10629 0.6413,-3.20998 1.42578,-4.67578 0.5695,-1.06413 1.02284,-1.6519 1.52344,-1.81446 z m 11.58789,1.82813 c 0.70283,-0.13681 1.5418,-0.0671 2.46289,0.27929 3.46674,1.30362 3.97139,4.55609 0.89062,5.73829 -2.78112,1.06722 -2.65865,1.09758 -4.5,-1.1211 -1.84132,-2.21866 -0.96199,-4.48606 1.14649,-4.89648 z M 352.22266,340 c 2.05949,0 3.91569,6.96419 3.50586,13.14844 -0.50411,7.60711 -3.62263,9.14196 -3.98829,1.96289 C 351.06494,341.85289 351.12394,340 352.22266,340 Z m 9.04492,1.30859 c 0.5924,-0.11395 1.45136,0.48072 2.55664,1.8125 2.20331,2.65483 14.34474,57.76339 16.79101,76.21289 1.16681,8.8 4.0276,24.39935 6.35743,34.66602 2.68655,11.83862 4.25922,22.41247 4.29882,28.9082 0.0585,9.59568 -0.18999,10.50873 -3.9375,14.45313 -2.2,2.31558 -5.62131,5.05726 -7.60156,6.09179 -16.46703,8.60278 -23.55238,-10.48237 -21.82812,-58.7871 0.58876,-16.49405 0.38261,-25.45884 -0.65821,-28.66602 -2.17272,-6.69504 -3.35275,-49.09451 -1.41992,-51.02734 2.98399,-2.98399 4.37942,1.4496 6.91992,21.99414 2.65548,21.47424 6.5033,36.86271 9.92579,39.70312 1.6937,1.40566 1.99191,1.07645 1.97851,-2.17383 -0.009,-2.10646 -0.9067,-7.12877 -1.99609,-11.16211 -1.82013,-6.73881 -9.90246,-50.80242 -12.04492,-65.66796 -0.57759,-4.0076 -0.32913,-6.1675 0.6582,-6.35743 z m 37.42578,146.58008 c 1.07634,-0.48919 2.45347,0.51218 5.07226,2.58008 15.75689,12.44224 66.77107,42.99937 93.21485,55.83398 11.29163,5.48045 18.55296,9.84905 20.16211,12.13086 6.89099,9.77153 14.78267,31.03499 19.53515,52.63868 1.25899,5.72309 2.02418,10.66918 1.70118,10.99218 -0.323,0.32301 -4.69398,-5.40493 -9.71289,-12.73047 -5.01892,-7.32553 -9.35769,-13.08762 -9.64258,-12.80273 -0.28489,0.28489 1.29946,5.2014 3.52148,10.92383 2.22203,5.72242 3.80101,10.64431 3.50781,10.9375 -0.62828,0.62828 -8.43068,-9.46713 -18.85156,-24.39258 -8.33679,-11.94049 -8.26138,-9.88339 0.3125,8.54688 3.21028,6.90074 5.61865,12.76611 5.35156,13.0332 -0.26709,0.2671 -4.77541,-5.68035 -10.01953,-13.21485 -18.33619,-26.34458 -22.23924,-28.55065 -11.51172,-6.50976 3.3,6.78022 6,12.64427 6,13.03125 0,0.8172 -16.16831,-19.87181 -26.36328,-33.73438 C 467.12218,569.91932 463.08566,564.90101 462,564 c -2.41861,-2.00727 4.43441,15.01017 10.06055,24.98047 6.84298,12.12671 4.29399,10.58331 -6.23438,-3.77344 -12.48289,-17.02199 -28.76998,-37.37455 -29.40234,-36.74219 -0.25689,0.25689 2.16089,6.70686 5.37305,14.33399 3.21215,7.62713 6.83969,16.26784 8.06054,19.20117 l 2.2207,5.33398 -3.42578,-4 c -3.6864,-4.30513 -11.58487,-16.73937 -20.64257,-32.49609 -4.06041,-7.06345 -5.96769,-9.31786 -6.77735,-8.00781 -1.34961,2.18372 -2.54857,0.81339 -10.91211,-12.48438 -5.99601,-9.53346 -7.48138,-10.6293 -8.60156,-6.3457 -0.97854,3.74191 -1.86205,3.42936 -8.92969,-3.15234 l -6.25,-5.81836 3.52539,-7.84766 c 1.93799,-4.31632 4.35134,-10.13134 5.36328,-12.92187 1.41467,-3.9011 2.18929,-5.88191 3.26563,-6.3711 z m -107.04102,3.62891 c 2.29371,-1.37529 17.14659,21.6359 15.51758,24.04101 -6.81749,10.06555 -21.36174,29.67445 -22.04297,29.71875 -0.48039,0.0312 0.004,-3.30781 1.07813,-7.41992 1.07382,-4.11212 1.68855,-7.74113 1.36523,-8.06445 -0.32333,-0.32333 -2.82045,3.49112 -5.54883,8.47656 -5.15258,9.41509 -16.71457,28.39649 -17.29687,28.39649 -0.18333,0 0.38549,-4.58881 1.26562,-10.19922 1.91745,-12.2228 2.01551,-12.31686 -11.57812,11.23828 -5.19618,9.00399 -9.62216,16.1962 -9.83399,15.98437 -0.21182,-0.21183 0.69435,-5.02763 2.01368,-10.70312 1.31934,-5.67549 2.22772,-10.32031 2.01758,-10.32031 -1.15809,0 -10.78742,14.6881 -18.61524,28.39453 -4.94027,8.65036 -9.1626,15.54833 -9.38281,15.32812 -0.22021,-0.22022 0.74737,-5.19707 2.15039,-11.06055 3.18927,-13.32859 3.31924,-16.27408 0.61914,-14.0332 -3.21373,2.66716 -11.59504,15.84718 -19.09961,30.03711 -4.17075,7.88622 -6.76361,11.69969 -6.3457,9.33399 2.5307,-14.3259 4.76817,-30.40566 4.29687,-30.87696 -1.17937,-1.17938 -9.55952,13.69439 -17.22851,30.57617 -7.91255,17.41791 -10.06243,21.50362 -8.57227,16.30079 11.46774,-40.03913 14.25475,-50.42299 13.68555,-50.99219 -0.37713,-0.37713 -4.15648,4.77286 -8.40039,11.44531 -4.24391,6.67245 -8.09769,12.15133 -8.5625,12.17383 -1.57318,0.0763 6.91441,-38.73487 9.64453,-44.10156 0.59923,-1.17791 9.66391,-7.13992 20.14453,-13.25 27.6258,-16.10552 42.23748,-25.75924 65.97852,-43.59571 11.59334,-8.71001 21.82198,-16.28339 22.73046,-16.82812 z m 56.13086,16.84375 c 4.90156,0.0538 10.66343,5.04541 26.41797,21.91992 42.23117,45.23332 65.90858,67.94992 99.79883,95.74414 18.90256,15.50245 33.29713,25.10393 53.33398,35.57813 8.06667,4.21682 13.93267,7.68201 13.03711,7.69921 -0.89555,0.0172 -6.56088,-1.7704 -12.58984,-3.9707 -12.35848,-4.51028 -24.69756,-11.47943 -36.34766,-20.5293 -7.09818,-5.51388 -7.92844,-5.77266 -8.66211,-6.26562 l -5.30664,-3.76172 c -0.0615,-0.0761 -0.24256,-0.20905 -0.30859,-0.28711 -1.6136,-1.61866 -3.27215,-3.25233 -5.15625,-4.79101 -39.65532,-31.88027 -50.33309,-42.46092 -104.58789,-103.62305 -9.26537,-10.44498 -17.29443,-15.71163 -22.05469,-14.4668 -3.37272,0.88199 -8.2168,6.29616 -25.39648,28.39258 -20.86174,26.83227 -34.98014,42.93547 -56.06836,63.95312 -21.19501,21.12408 -40.30357,37.98303 -55.22656,48.72266 C 198.12176,660.26417 176.00811,672 172.25391,672 c -1.06647,0 5.01724,-4.44611 13.51757,-9.88086 37.01184,-23.66381 66.50506,-50.28916 110.91602,-100.12695 5.87781,-6.59605 15.60912,-18.08506 21.62695,-25.53125 14.2893,-17.68096 23.26777,-26.8041 27.39453,-27.83985 0.69178,-0.17362 1.374,-0.26745 2.07422,-0.25976 z M 190,532.83398 c 9.3562,-0.0137 22,3.98874 22,6.96485 0,0.7735 -4.18055,0.99624 -10.53711,0.56055 -9.06754,-0.62151 -11.38572,-0.31175 -16.62109,2.22265 -13.25846,6.41831 -23.96689,30.73586 -29.09961,66.08399 -1.13752,7.83386 -1.72968,25.88712 -1.70508,52 0.0425,45.19157 1.30625,55.89266 9.56641,80.99218 6.0998,18.53504 11.36664,27.35669 18.77343,31.44141 5.42616,2.99244 5.88024,3.03796 9.08594,0.9375 5.1135,-3.35049 13.14186,-16.72335 17.84961,-29.73047 9.33822,-25.80073 17.35344,-61.00062 19.42969,-85.33594 0.96386,-11.29724 3.2599,-16.50708 3.2539,-7.38281 -0.008,11.83406 -2.88946,42.28197 -5.45898,57.66602 -5.5564,33.26672 -12.21372,49.60967 -25.87109,63.51757 -4.4,4.48071 -9.19935,8.78173 -10.66602,9.55664 -2.11151,1.11565 -7.24602,-0.0499 -24.66602,-5.5957 -38.75854,-12.339 -47.88829,-17.00811 -64,-32.73242 C 83.299737,726.39938 67.283712,701.78696 51.880859,668 41.332557,644.86175 39.669803,639.49316 39.695312,628.66602 c 0.04035,-17.12777 10.048033,-44.71754 20.22461,-55.75782 6.282012,-6.81518 19.285931,-14.04894 32.568359,-18.11523 10.563239,-3.23383 30.736439,-5.8156 36.474609,-4.66797 3.66498,0.733 3.09038,1.2188 -8.66211,7.33008 -6.92272,3.5998 -16.27262,7.49675 -20.777342,8.6582 -17.607287,4.53967 -28.380038,12.92304 -35.923829,27.95899 -3.189433,6.35704 -7.999779,21.97287 -7.058593,22.91406 0.238238,0.23824 5.770836,-4.837 12.292968,-11.27735 12.807853,-12.64727 26.449927,-23.38464 41.052736,-32.3125 10.9852,-6.71612 38.04901,-20.57208 38.77148,-19.8496 0.27975,0.27975 -1.26137,5.51253 -3.42578,11.6289 -4.2285,11.94924 -7.88553,31.42518 -7.89453,42.04688 -0.003,3.60556 0.2731,6.27767 0.61133,5.93945 0.33822,-0.33823 2.14296,-8.45491 4.01172,-18.03906 5.49947,-28.20471 10.1911,-40.34066 19.49804,-50.4375 7.29548,-7.91465 16.73533,-11.83437 28.54102,-11.85157 z m 364.65625,17.83204 c -0.78746,0 6.89937,8.25065 17.08203,18.33398 18.68193,18.49969 25.30458,27.10582 33.06836,42.97852 9.04974,18.5018 12.52339,33.66877 12.37109,54.02148 -0.14769,19.73569 -1.33284,23.79862 -3.65234,12.52539 -3.2636,-15.86182 -15.16964,-41.28325 -30.53125,-65.19141 -8.21799,-12.79013 -17.78798,-25.65147 -18.5332,-24.90625 -0.27265,0.27264 1.07119,4.6385 2.98633,9.70118 16.09488,42.54683 24.53235,83.79221 21.76171,106.38476 -1.05885,8.63411 -4.31963,20.08246 -6.38476,22.41992 -0.45357,0.51339 -0.83998,-5.78661 -0.85938,-14 -0.0388,-16.44531 -1.90238,-25.37104 -8.96679,-42.93359 l -4.29102,-10.66602 -1.61719,18 c -2.79167,31.0731 -10.27681,67.7469 -17.61914,86.33204 -1.521,3.85 -2.37517,7 -1.89843,7 1.69306,0 21.2465,-11.17187 31.09375,-17.76563 35.88199,-24.02674 56.42934,-44.50627 66.58984,-66.375 6.77925,-14.59118 7.60511,-28.725 2.7207,-46.52539 -1.57103,-5.72533 -1.70485,-5.84675 -2.91211,-2.66602 -3.36135,8.85603 -8.25774,17.32061 -12.26953,21.20899 l -4.43164,4.29492 -0.91601,-8.41992 c -4.04414,-37.17343 -23.1748,-72.47128 -49.32227,-91.00586 -8.34179,-5.91306 -20.92231,-12.74609 -23.46875,-12.74609 z m -170.42773,6.58007 4.53906,5.71094 c 2.4969,3.1407 4.54287,6.60899 4.54687,7.70899 0.004,1.1 -2.60552,7.79055 -5.79687,14.86718 -21.12388,46.84087 -50.84148,63.6491 -79.89649,45.1875 -3.5088,-2.2295 -6.63582,-4.05468 -6.94921,-4.05468 -0.31338,0 1.54277,4.95 4.12695,11 16.27983,38.11386 41.9985,68.93292 54.83594,65.71093 11.23849,-2.82068 25.33299,-13.56432 34.98828,-26.66992 2.71747,-3.68855 9.83977,-14.78372 15.82617,-24.65625 5.98639,-9.87254 10.88476,-17.1526 10.88476,-16.17773 0,0.97486 -2.72145,8.21736 -6.04687,16.0957 -11.40735,27.02545 -28.92723,52.89967 -41.42188,61.17578 -11.03937,7.31218 -19.37468,5.51636 -32.29296,-6.95898 -18.57878,-17.94177 -48.53496,-67.19119 -60.98047,-100.25586 l -3.29883,-8.76367 5.00781,-5.75782 5.00781,-5.75586 7.01172,6.41016 c 15.94863,14.57615 31.98414,17.75187 48.52344,9.61133 10.30148,-5.07033 24.76546,-19.45179 34.9375,-34.73828 z M 116.00977,584 c -2.31034,0 -15.52076,17.59286 -19.523442,26 -8.195543,17.21373 -10.241433,27.81566 -10.292969,53.33398 -0.02518,12.46667 0.668725,26.21777 1.542969,30.5586 0.874245,4.34084 1.331044,8.14942 1.015625,8.46484 -0.7294,0.7294 -6.079916,-9.80617 -10.679687,-21.02734 C 73.569661,670.34594 68.032777,647.83157 67.908203,640 c -0.05249,-3.3 -0.560639,-7.18954 -1.128906,-8.64453 -1.984029,-5.0799 -4.790946,6.98794 -4.646485,19.97851 0.152312,13.69656 2.647784,24.39875 9.482422,40.66602 14.677883,34.93515 42.414496,61.01857 78.005856,73.35742 6.07482,2.10602 11.80263,3.86205 12.72852,3.90235 1.0432,0.0454 -0.1667,-3.60339 -3.18359,-9.59375 -7.07503,-14.04824 -10.45418,-23.72825 -14.31055,-41 C 140.76958,700.36631 132,632.25838 132,618.82422 c 0,-5.21994 -0.51276,-9.49024 -1.13867,-9.49024 -1.59886,0 -4.19531,27.39784 -4.19531,44.26954 0,25.92179 5.38572,62.50108 12.05468,81.88476 1.44103,4.18841 2.37032,7.86405 2.06641,8.16797 -1.64442,1.64441 -16.46097,-28.9748 -22.33008,-46.14648 C 106.43751,662.34335 104.823,625.80976 113.90234,594.46289 115.56914,588.70819 116.51765,584 116.00977,584 Z m 267.34765,3.13086 c -0.13804,-0.0798 -0.41034,-0.006 -0.83203,0.24414 -1.02223,0.60667 -4.25807,3.03238 -7.19141,5.39062 -15.4573,12.42685 -29.74926,17.95091 -49.33398,19.07032 -16.1223,0.92151 -16.43751,2.04331 -1.73633,6.16601 16.96406,4.75728 34.88653,-0.90531 47.94727,-15.14843 6.52877,-7.11982 12.11281,-15.16436 11.14648,-15.72266 z m 72.14453,55.92773 c 0.98822,0.98821 -19.18844,81.33815 -24.17578,96.27539 -2.69335,8.06667 -8.86259,24.71667 -13.70898,37 l -8.81055,22.33204 h -17.72852 -17.72656 l 9.10352,-9 c 9.96135,-9.84746 28.29831,-36.53675 35.78515,-52.08594 2.58304,-5.36464 4.45151,-9.99968 4.15235,-10.29883 -0.29915,-0.29915 -11.20854,8.14541 -24.24414,18.76563 -37.48378,30.5383 -39.01614,31.2887 -53.0918,25.99804 -8.34583,-3.13697 -24.17593,-13.01029 -32.3125,-20.1543 -2.85409,-2.50592 -4.93266,-3.95785 -4.62109,-3.2246 5.98885,14.09463 20.36663,37.15764 27.80078,44.59179 l 5.41015,5.40821 h -4.02734 c -3.50764,0 -4.77694,-1.16053 -9.84766,-9 C 313.3519,767.85611 297.87692,736.82373 290.72656,716 c -3.26329,-9.50357 -10.77703,-37.33398 -10.08008,-37.33398 0.23976,0 4.79412,6.1513 10.1211,13.66796 22.86,32.2567 41.70803,54.46026 51.64062,60.83399 4.21014,2.70164 9.10568,4.55017 13.39844,5.05859 10.68293,1.26523 19.16869,-3.61488 36.19336,-20.8125 19.44245,-19.63998 36.58855,-44.37485 54.34961,-78.40234 4.73552,-9.07254 8.85398,-16.2515 9.15234,-15.95313 z M 245.38281,720.8418 c 0.0267,-0.82971 6.65517,14.99153 14.73047,35.1582 8.0753,20.16667 15.23814,38.01602 15.91797,39.66602 1.21645,2.9524 1.0797,3 -8.64063,3 -11.10182,0 -10.30254,0.80148 -12.64062,-12.66602 -1.90663,-10.98229 -9.42719,-63.29568 -9.36719,-65.1582 z m 225.15235,18.875 c 0.0891,0.14091 0.1407,0.45971 0.1582,0.94922 0.39605,11.07992 -0.0999,37.72748 -0.88672,47.66796 l -0.81836,10.33204 h -7.82617 c -4.30531,0 -7.80991,-0.1487 -7.78711,-0.33204 0.0228,-0.18333 3.8853,-14.43463 8.58398,-31.66796 5.48867,-20.13077 7.9524,-27.9356 8.57618,-26.94922 z m -200.73438,12.70508 c 0.35352,-0.35353 26.14475,42.28691 27.31055,45.15234 0.24445,0.60082 -2.46572,1.0918 -6.02344,1.0918 h -6.46875 l -7.61133,-22.91993 c -4.18616,-12.60612 -7.42956,-23.10168 -7.20703,-23.32421 z"
       sodipodi:nodetypes="sssssssccsssssssssssssssssssssssccccccssssssssssssssccssccsssssssssssssssccssscccssssssssssscccccssscccsssssssssssssssssssssssssscssssssssssssssssssssssssssssssssssscccssssssssssssssssssssssssscccssssssscccsssssssccssssssssssssssssssssscssssssssssssscsscccccssscsssssssssscssssssscssssssccsssssccsssssssssssssssssssscccsccsssscssscssssssssccsssssssssssssccssssssssssssssccsssssssssssssssssssssssssssssssssssssssssssccscccsssscccsssssscccssssssssssssccssscccsssssscccssssssscccssssssssscsssssssssssssssssssssssssssssssssssssssssssssscccsssssssssscsssssssssssssssssssssssssssssssssssssssssssssssssssssssssscccsssscccssssssssssssssssssssssssssssssssssssscccssssssssssssssssssssssscssssssssssssssssssssssssscssssssssccsssssssccsssccsssssssssssscccccsccssssssssssssssssssssssssssssssssccccssssscccssssssssssssssssssscsssssssccscs" />
  </g>
</svg>
